<?xml version="1.0" encoding="UTF-8"?><svg id="Layer_1" xmlns="http://www.w3.org/2000/svg" viewBox="0 0 1677.69 1147.87"><defs><linearGradient id="nfs-gradient" x1="0" y1="0" x2="1677.69" y2="1147.87" gradientUnits="userSpaceOnUse"><stop offset="0%" stop-color="#0ac993"/><stop offset="100%" stop-color="#0a9fc1"/></linearGradient><style>.cls-1{fill:none;stroke:url(#nfs-gradient);stroke-linecap:round;stroke-miterlimit:10;stroke-width:70px;}</style></defs><path class="cls-1" d="M507.71,702.89c-2.61-316.31-.53-391.84,2.26-391.91,1.39-.03,3.13,18.5,3.83,29.86,3.31,54.12-7.84,98.79-7.21,98.9.53.09,3.19-32.87,21.49-63.74,4.41-7.44,8.5-12.71,11.94-16.61,3.13-3.54,14.4-15.84,32.89-25.32,26.2-13.43,50.85-12.98,63.7-12.59,10.25.31,31.64,1.18,55.76,12.88,7.69,3.73,23.2,11.17,36.61,26.92,5.2,6.11,16.61,20.51,24.54,52.06,3.69,14.68,5.92,30.2,4.94,86.27-1.01,57.6-3.78,64.78,0,90.35,3.69,24.97,6.48,43.85,20.33,63.25,20.55,28.77,51.39,38.99,63.25,42.92,0,0,22.38,7.42,73.92,10.83,5.58.37,11,.49,11,.49,5.55.12,12.98.12,22.71-.49,24.21-1.5,39.87-2.47,57.73-5.9,39.41-7.56,68.06-22.94,76.32-27.55,24.52-13.69,40.6-28.17,49.18-35.99,21.29-19.4,34.44-37.31,44.78-51.55,13.44-18.51,22.41-34.23,31.82-50.72,5.17-9.06,12.53-21.96,20.14-37.83,4.92-10.26,16.35-35.11,27.13-71.6,18.45-62.48,16.76-97.35,25.33-97.92,4.96-.33,10.45,13.82,20.07,42.59,28.01,83.78,32.48,101.6,32.48,101.6,19.09,76.11,28.63,114.17,32.5,139.11,11.42,73.65,8.78,118.06,1.36,153.56-2.96,14.17-10.22,37.18-26.99,59.12-13.45,17.59-25.67,24.53-28.43,26.04-16.56,9.09-31.83,9.51-38.58,9.28-7.19-.25-32.4-1.11-50.64-22.41-11.87-13.86-14.88-29.48-15.95-35.43-3.49-19.35.97-34.64,2.16-38.46,1.43-4.58,3.11-8.21,3.95-10.04,0,0,6.11-13.3,15.58-23.95,17.49-19.66,46.24-27.69,49.93-28.68,21.72-5.36,43.45-10.72,65.17-16.08,6.55-2.23,15.68-5.4,26.56-9.35,13.78-5.01,23.83-8.89,37.28-14.29,8.45-3.39,19.54-8.22,32.15-14.8,4.34-2.27,8.35-4.47,12.09-6.62.5-.29,1.13-.65,1.89-1.09,4.76-2.77,16.14-9.82,25.23-16.03,8.96-6.12,25.83-18.34,46.96-35.28"/><path class="cls-1" d="M1118.7,315.03c5.6-20.76,10.76-45.86,13.42-74.6,2.84-30.63,2.14-57.8.15-80.23-.82-13.06-3.59-34.05-13.76-57.48-9.85-22.69-21.58-53.22-52.34-63.09-7.13-2.29-32.41-9.98-59.96,1.58-20.35,8.54-31.6,23.05-37.04,30.77-15.27,21.69-19.47,43.17-24.18,80.08-7.42,58.09-7.01,277.88-6.41,335.07.57,54.82,2.57,188.28,2.94,196.91.69,15.98.62,13.53.86,19.5,2.1,52.44,1.72,92.86,1.62,102.18-.36,33-1.51,55.34-3.77,99.36-2.57,50.04-4.22,63.68-5.25,71.46-5.35,40.26-8.29,60.85-21.46,83.85-8.78,15.31-22.6,39.43-50.9,48.79-28.12,9.3-53.81-1.51-62.82-5.3-5.15-2.17-25.25-11.12-42.04-32.33-28.94-36.55-24.79-80.07-23.76-90.9,2.19-22.97,9.89-40.4,18.64-60.23,8.8-19.93,18.18-34.65,23.97-43.66,7.6-11.82,16.05-22.61,32.65-43.71,20.87-26.52,31.3-39.79,42.9-52.07,15.61-16.53,19.13-17.71,38.33-37.42,15.14-15.54,26.79-29.02,34.43-38.18"/><circle cx="311.57" cy="341.2" r="83.43" fill="url(#nfs-gradient)"/><circle cx="311.57" cy="619.04" r="83.43" fill="url(#nfs-gradient)"/><circle cx="83.43" cy="472.21" r="83.43" fill="url(#nfs-gradient)"/><circle cx="1623.84" cy="516.61" r="53.85" fill="url(#nfs-gradient)"/></svg>